# xmcd CD database file
#
# Track frame offsets:
#	150
#	14140
#	27928
#	39137
#	53856
#	65696
#	74949
#	88774
#	103326
#	116256
#
# Disc length: 1800 seconds
#
# Revision: 0
# Processed by: cddbd v1.5.1PL2 Copyright (c) Steve Scherf et al.
# Submitted via: Feurio! 1.68 - http://www.feurio.com
#
DISCID=9007060a
DTITLE=Various Artist - Country Gospel Greats - 1
DYEAR=1900
DGENRE=
TTITLE0=Gatlin Brothers - I'll Fly Away
TTITLE1=Donna Fargo - You Can't Be a Beacon (If Your Light Don't Shine)
TTITLE2=Mickey Gilley - I Saw the Light
TTITLE3=Ray Price - How Great Thou Art
TTITLE4=Jordanaires - Crying in the Chapel
TTITLE5=Don Gibson - I Need Thee Every Hour
TTITLE6=Jeannie Seely - One Day at a Time
TTITLE7=Kenny Price - Peace in the Valley
TTITLE8=Patsy Cline - Life's Railway to Heaven
TTITLE9=T. Graham Brown - Oh Happy Day
EXTD=
EXTT0=
EXTT1=
EXTT2=
EXTT3=
EXTT4=
EXTT5=
EXTT6=
EXTT7=
EXTT8=
EXTT9=
PLAYORDER=
